<?xml version="1.0" encoding="iso-8859-1"?>
<!-- Generator: Adobe Illustrator 19.0.0, SVG Export Plug-In . SVG Version: 6.00 Build 0)  -->
<svg version="1.1" id="Capa_1" xmlns="http://www.w3.org/2000/svg" xmlns:xlink="http://www.w3.org/1999/xlink" x="0px" y="0px"
	 viewBox="0 0 512 512" style="enable-background:new 0 0 512 512;" xml:space="preserve">
<path style="fill:#61DE56;" d="M256,512c-57.769,0-112.296-8.112-153.538-22.841C43.398,468.065,31,440.995,31,422
	c0-15.808,8.835-38.829,50.923-58.727c28.683-13.56,67.424-23.254,112.034-28.034c8.245-0.885,15.63,5.08,16.513,13.316
	c0.883,8.237-5.079,15.63-13.316,16.513C103.242,375.131,61,404.418,61,422c0,9.908,13.543,25.332,51.553,38.907
	C150.639,474.509,201.583,482,256,482s105.361-7.491,143.447-21.093C437.457,447.332,451,431.908,451,422
	c0-17.582-42.242-46.869-136.155-56.932c-8.236-0.883-14.198-8.276-13.316-16.513c0.884-8.238,8.284-14.2,16.514-13.316
	c44.61,4.78,83.351,14.474,112.034,28.035C472.165,383.171,481,406.192,481,422c0,18.994-12.398,46.065-71.463,67.159
	C368.296,503.888,313.769,512,256,512z"/>
<g>
	<path style="fill:#FD3018;" d="M256,459.5c-5.125,0-9.895-2.616-12.649-6.938L122.19,262.446
		c-3.739-5.175-7.208-10.614-10.317-16.174C98.218,221.842,91,194.085,91,166c0-2.99,0.082-6.015,0.243-8.993
		c2.277-42.144,20.422-81.569,51.094-111.013C173.232,16.334,213.599,0,256,0c43.972,0,85.405,17.376,116.67,48.928
		C403.836,80.381,421,121.958,421,166c0,34.322-10.484,67.251-30.32,95.229c-0.11,0.157-0.225,0.311-0.342,0.463
		c-0.175,0.227-0.302,0.403-0.374,0.507L268.649,452.562C265.896,456.883,261.125,459.5,256,459.5z M256,30
		c-71.692,0-130.904,56.5-134.801,128.627l0,0c-0.132,2.44-0.199,4.921-0.199,7.373c0,22.972,5.899,45.667,17.059,65.633
		c2.606,4.662,5.525,9.223,8.673,13.554c0.18,0.248,0.352,0.5,0.516,0.758L256,416.59l108.749-170.644
		c0.221-0.344,0.754-1.152,1.604-2.274C382.479,220.837,391,193.986,391,166C391,91.009,330.439,30,256,30z M106.221,157.817h0.01
		H106.221z"/>
	<path style="fill:#FD3018;" d="M256,241c-41.355,0-75-33.645-75-75s33.645-75,75-75s75,33.645,75,75S297.355,241,256,241z M256,121
		c-24.813,0-45,20.187-45,45s20.187,45,45,45s45-20.187,45-45S280.813,121,256,121z"/>
</g>
<g>
</g>
<g>
</g>
<g>
</g>
<g>
</g>
<g>
</g>
<g>
</g>
<g>
</g>
<g>
</g>
<g>
</g>
<g>
</g>
<g>
</g>
<g>
</g>
<g>
</g>
<g>
</g>
<g>
</g>
</svg>
